<?xml version="1.0" encoding="utf-8"?>
<!-- Generator: Adobe Illustrator 14.0.0, SVG Export Plug-In . SVG Version: 6.00 Build 43363)  -->
<!DOCTYPE svg PUBLIC "-//W3C//DTD SVG 1.1//EN" "http://www.w3.org/Graphics/SVG/1.1/DTD/svg11.dtd">
<svg version="1.1" id="Layer_1" xmlns="http://www.w3.org/2000/svg" xmlns:xlink="http://www.w3.org/1999/xlink" x="0px" y="0px"
	 width="570px" height="278px" viewBox="0 0 570 278" enable-background="new 0 0 570 278" xml:space="preserve">
<polygon opacity="0.2" fill="#1B1F8A" enable-background="new    " points="157.5,52.5 345.5,46 524.5,94.5 557.5,217 161,261.5 
	10.5,124.5 "/>
<line fill="none" stroke="#363639" x1="304.683" y1="51.438" x2="309.5" y2="47"/>
<line fill="none" stroke="#363639" x1="118.5" y1="223" x2="240.5" y2="111.5"/>
<line fill="none" stroke="#363639" x1="84.5" y1="192" x2="273.5" y2="48"/>
<line fill="none" stroke="#363639" x1="55.5" y1="165.5" x2="235.5" y2="49.5"/>
<line fill="none" stroke="#363639" x1="31.5" y1="143.5" x2="197" y2="51"/>
<line fill="none" stroke="#363639" x1="161" y1="261.5" x2="276" y2="127.5"/>
<line fill="none" stroke="#363639" x1="320.939" y1="74.654" x2="345.5" y2="46"/>
<line fill="none" stroke="#363639" x1="335" y1="242.5" x2="406" y2="62"/>
<line fill="none" stroke="#363639" x1="413.5" y1="233.5" x2="442" y2="71.5"/>
<line fill="none" stroke="#363639" x1="488.5" y1="226" x2="481" y2="82.5"/>
<line fill="none" stroke="#363639" x1="529" y1="110.5" x2="309.5" y2="47"/>
<line fill="none" stroke="#363639" x1="283.655" y1="51.19" x2="273.5" y2="48"/>
<line fill="none" stroke="#363639" x1="534.5" y1="130" x2="310.462" y2="59.612"/>
<line fill="none" stroke="#363639" x1="275.259" y1="62.97" x2="235.5" y2="49.5"/>
<line fill="none" stroke="#363639" x1="541" y1="153" x2="324.832" y2="79.765"/>
<line fill="none" stroke="#363639" x1="265.96" y1="76.603" x2="197" y2="51"/>
<line fill="none" stroke="#363639" x1="548.5" y1="181.5" x2="342.492" y2="105.016"/>
<line fill="none" stroke="#363639" x1="558" y1="217.5" x2="330.5" y2="123.5"/>
<line fill="none" stroke="#363639" x1="254.25" y1="92.535" x2="157.5" y2="52.5"/>
<line fill="none" stroke="#363639" x1="413.5" y1="233.5" x2="111" y2="75"/>
<line fill="none" stroke="#363639" x1="335" y1="242.5" x2="83.5" y2="89.5"/>
<line fill="none" stroke="#363639" x1="250.5" y1="252" x2="49.5" y2="105"/>
<line fill="none" stroke="#363639" x1="118.5" y1="223" x2="548.5" y2="181.5"/>
<line fill="none" stroke="#363639" x1="84.5" y1="192" x2="541" y2="153"/>
<line fill="none" stroke="#363639" x1="55.5" y1="165.5" x2="534.5" y2="130"/>
<line fill="none" stroke="#363639" x1="10.5" y1="124.5" x2="240.5" y2="111.5"/>
<line fill="none" stroke="#363639" x1="342.5" y1="105" x2="525" y2="94.5"/>
<line fill="none" stroke="#363639" x1="323.495" y1="77.45" x2="442" y2="71.5"/>
<line fill="none" stroke="#363639" x1="83.5" y1="89.5" x2="262.75" y2="80.5"/>
<line fill="none" stroke="#363639" x1="315" y1="66.01" x2="406" y2="62"/>
<line fill="none" stroke="#363639" x1="111" y1="75" x2="272.007" y2="67.904"/>
<line fill="none" stroke="#363639" x1="308.008" y1="56.148" x2="374.5" y2="53.5"/>
<line fill="none" stroke="#363639" x1="136" y1="63" x2="279.762" y2="57.273"/>
<line fill="none" stroke="#363639" x1="49.5" y1="105" x2="252.508" y2="94.826"/>
<line fill="none" stroke="#363639" x1="331.997" y1="90.185" x2="481" y2="82.5"/>
<line fill="none" stroke="#363639" x1="250.5" y1="252" x2="374.5" y2="53.5"/>
<line fill="none" stroke="#363639" x1="31.5" y1="143.5" x2="529" y2="110.5"/>
<line fill="none" stroke="#363639" x1="488.5" y1="226" x2="136" y2="63"/>
<line fill="none" stroke="#363639" stroke-dasharray="6" x1="294.5" y1="37" x2="306.5" y2="91.5"/>
<line fill="none" stroke="#363639" stroke-dasharray="6" x1="294.5" y1="37" x2="259" y2="94.5"/>
<line fill="none" stroke="#363639" stroke-dasharray="6" x1="240.763" y1="111.265" x2="259" y2="94.5"/>
<line fill="none" stroke="#363639" stroke-dasharray="6" x1="342.5" y1="105" x2="306.451" y2="91.635"/>
<line fill="none" stroke="#363639" stroke-dasharray="6" x1="259" y1="94.5" x2="306.451" y2="91.635"/>
<linearGradient id="SVGID_1_" gradientUnits="userSpaceOnUse" x1="307.9053" y1="50.7314" x2="303.9051" y2="116.0687">
	<stop  offset="0" style="stop-color:#BBBEF2"/>
	<stop  offset="1" style="stop-color:#585B8B"/>
</linearGradient>
<polygon opacity="0.6" fill="url(#SVGID_1_)" points="294.5,37.167 276.167,127.333 330.5,123.5 "/>
<linearGradient id="SVGID_2_" gradientUnits="userSpaceOnUse" x1="325.9219" y1="-41.5586" x2="260.4211" y2="114.4431">
	<stop  offset="0" style="stop-color:#BBBEF2"/>
	<stop  offset="1" style="stop-color:#585B8B"/>
</linearGradient>
<polygon opacity="0.6" fill="url(#SVGID_2_)" points="294.5,37 240.667,111.333 276,127.5 "/>
<linearGradient id="SVGID_3_" gradientUnits="userSpaceOnUse" x1="311.8027" y1="73.1133" x2="408.1373" y2="234.1181">
	<stop  offset="0" style="stop-color:#BBBEF2"/>
	<stop  offset="1" style="stop-color:#585B8B"/>
</linearGradient>
<polygon opacity="0.6" fill="url(#SVGID_3_)" points="294.667,37 330.5,123.667 342.333,104.833 "/>
<line fill="none" stroke="#363639" x1="294.5" y1="37" x2="330.5" y2="123.5"/>
<line fill="none" stroke="#363639" x1="294.5" y1="37" x2="276" y2="127.5"/>
<line fill="none" stroke="#363639" x1="294.5" y1="37" x2="240.5" y2="111.5"/>
<line fill="none" stroke="#363639" x1="294.5" y1="37" x2="342.5" y2="105"/>
<circle fill="#231F20" cx="294.667" cy="37" r="3.833"/>
<g>
	<defs>
		<rect id="SVGID_4_" x="276" y="11" width="21" height="18"/>
	</defs>
	<clipPath id="SVGID_5_">
		<use xlink:href="#SVGID_4_"  overflow="visible"/>
	</clipPath>
	<path clip-path="url(#SVGID_5_)" d="M288.898,13.811c0-1.55-0.754-2.011-1.276-2.011c-0.726,0-1.422,0.751-1.422,1.384
		c0,0.374,0.148,0.547,0.478,0.863c0.627,0.575,1.017,1.323,1.017,2.359c0,1.208-1.766,7.795-5.152,7.795
		c-1.476,0-2.142-1.007-2.142-2.502c0-1.611,0.809-3.71,1.739-6.098c0.209-0.489,0.36-0.892,0.36-1.438
		c0-1.295-0.923-2.362-2.364-2.362c-2.708,0-3.803,4.178-3.803,4.437c0,0.288,0.29,0.288,0.348,0.288
		c0.29,0,0.319-0.059,0.464-0.523c0.841-2.932,2.089-3.601,2.93-3.601c0.232,0,0.726,0,0.726,0.923c0,0.719-0.297,1.496-0.505,2.013
		c-1.307,3.336-1.694,4.659-1.694,5.896c0,3.107,2.56,3.567,3.899,3.567c4.778,0,6.4-9.497,6.4-10.989"/>
	<path clip-path="url(#SVGID_5_)" d="M291.875,26.448c-0.078,0.261-0.175,0.502-0.175,0.844c0,0.944,0.791,1.707,1.88,1.707
		c1.979,0,2.85-2.771,2.85-3.071c0-0.261-0.261-0.261-0.32-0.261c-0.281,0-0.302,0.119-0.381,0.337
		c-0.461,1.584-1.344,2.396-2.125,2.396c-0.401,0-0.502-0.262-0.502-0.703c0-0.462,0.136-0.844,0.311-1.286
		c0.193-0.542,0.408-1.085,0.621-1.607c0.175-0.481,0.873-2.311,0.951-2.552c0.058-0.201,0.115-0.441,0.115-0.643
		c0-0.945-0.793-1.709-1.882-1.709c-1.962,0-2.873,2.767-2.873,3.111c0,0.265,0.281,0.265,0.341,0.265
		c0.281,0,0.302-0.101,0.362-0.322c0.522-1.73,1.406-2.454,2.149-2.454c0.32,0,0.503,0.162,0.503,0.705
		c0,0.462-0.116,0.763-0.599,2.009 M295.907,16.276c0-0.327-0.241-0.777-0.804-0.777c-0.543,0-1.125,0.531-1.125,1.124
		c0,0.348,0.261,0.777,0.804,0.777C295.364,17.4,295.907,16.828,295.907,16.276z"/>
</g>
</svg>
